<?xml version="1.0" encoding="iso-8859-1"?>
<!-- Uploaded to: SVG Repo, www.svgrepo.com, Generator: SVG Repo Mixer Tools -->
<!DOCTYPE svg PUBLIC "-//W3C//DTD SVG 1.1//EN" "http://www.w3.org/Graphics/SVG/1.1/DTD/svg11.dtd">
<svg fill="#000000" version="1.1" id="Capa_1" xmlns="http://www.w3.org/2000/svg" xmlns:xlink="http://www.w3.org/1999/xlink" 
	 width="800px" height="800px" viewBox="0 0 416.633 416.633"
	 xml:space="preserve">
<g>
	<g id="Layer_2_22_">
		<g>
			<path d="M360.427,306.967c-16.428-19.417-23.575-48.188-28.126-80.07c-41.344-7.925-83.263-11.755-125.271-11.363
				c-42.007,0.394-83.848,5.005-125.036,13.7c-3.955,31.96-10.566,60.86-26.626,80.582l-14.847,44.983
				c0.233,24.978,74.285,44.572,165.876,44.06l-10.764-27.483c-31.334-0.394-61.407-3.281-85.804-8.318
				c-13.612-2.812-23.54-5.884-30.521-8.62c6.929-2.867,16.798-6.125,30.355-9.188c25.03-5.657,56.121-9.152,88.461-10.008
				l1.644,0.042l23.723,60.567c1.041,2.615,2.49,5.292,4.257,7.653c10.813,14.47,31.311,17.433,45.779,6.617
				c14.47-10.813,17.433-31.311,6.618-45.78l-20.509-27.439c17.044,1.412,33.064,3.595,47.168,6.507
				c13.61,2.81,23.539,5.883,30.521,8.619c-6.93,2.866-16.799,6.124-30.354,9.188c-3.668,0.829-7.485,1.603-11.403,2.335
				c4.024,8.371,5.521,17.726,4.252,27.124c46.045-8.56,76.441-22.955,76.292-39.01L360.427,306.967z"/>
			<path d="M316.773,114.178c-11.138-46.362-33.783-83.515-90.747-90.133c0.018-0.414,0.049-0.824,0.045-1.243
				c-0.119-12.7-9.544-22.908-21.054-22.801c-11.509,0.108-20.742,10.49-20.624,23.19c0.004,0.419,0.044,0.829,0.068,1.242
				c-56.831,7.681-78.777,45.249-89.048,91.811c36.594-5.875,73.543-9.014,110.601-9.359
				C243.072,106.54,280.074,108.987,316.773,114.178z"/>
			<path d="M329.979,208.745c-0.992-8.545-1.896-17.222-2.822-25.92c-4.157,3.048-9.188,5.551-15.369,5.609
				c-1.253,0.012-2.537-0.078-3.816-0.268c-12.24-1.814-17.733-11.47-21.744-18.521c-3.863-6.79-5.813-9.591-9.593-9.951
				c-0.272-0.025-0.542-0.038-0.807-0.035c-3.318,0.031-5.856,2.583-10.473,7.995c-5.231,6.13-12.475,14.62-24.824,14.085
				c-12.357-0.529-18.812-9.563-23.523-16.159c-4.533-6.345-6.756-8.926-10.542-8.891c-3.782,0.036-5.956,2.657-10.367,9.084
				c-4.59,6.686-10.874,15.838-23.216,16.597c-12.31,0.75-19.727-7.573-25.061-13.594c-5.115-5.775-7.678-8.194-11.448-7.771
				c-3.77,0.43-5.667,3.268-9.402,10.13c-3.878,7.124-9.189,16.88-21.391,18.923c-1.275,0.213-2.558,0.328-3.812,0.34
				c-6.172,0.057-11.244-2.347-15.455-5.312c-0.765,8.709-1.504,17.396-2.337,25.954c40.62-8.248,81.733-12.601,122.891-12.985
				C248.025,197.672,289.213,201.257,329.979,208.745z"/>
			<path d="M101.608,173.054c0.359-0.003,0.72-0.036,1.105-0.101c3.507-0.587,5.442-3.531,9.024-10.11
				c4.039-7.417,9.568-17.574,22.673-19.07c0.896-0.102,1.794-0.158,2.669-0.166c11.522-0.107,18.563,7.841,23.704,13.645
				c5.033,5.681,7.498,8.044,11.028,7.808c3.534-0.218,5.756-2.94,9.985-9.102c4.778-6.959,11.319-16.489,24.506-16.613
				c13.188-0.124,19.91,9.283,24.816,16.151c4.346,6.082,6.618,8.763,10.152,8.914c0.124,0.005,0.252,0.007,0.379,0.006
				c3.348-0.031,5.771-2.468,10.509-8.02c5.033-5.899,11.926-13.979,23.43-14.087c0.882-0.008,1.787,0.032,2.692,0.119
				c13.127,1.25,18.845,11.302,23.021,18.641c3.702,6.51,5.693,9.417,9.211,9.939c0.384,0.057,0.757,0.084,1.111,0.081
				c3.012-0.028,5.67-2.236,10.615-6.917c0.803-0.76,1.659-1.566,2.56-2.382c-1.207-9.992-2.579-19.894-4.29-29.538
				c-37.86-5.687-76.065-8.38-114.332-8.022c-38.266,0.357-76.413,3.763-114.161,10.155c-1.531,9.681-2.718,19.611-3.74,29.631
				c0.91,0.794,1.775,1.58,2.587,2.32C95.469,170.536,98.49,173.083,101.608,173.054z"/>
		</g>
	</g>
</g>
</svg>